<?xml version="1.0" standalone="no"?>
<!DOCTYPE svg PUBLIC "-//W3C//DTD SVG 20010904//EN"
 "http://www.w3.org/TR/2001/REC-SVG-20010904/DTD/svg10.dtd">
<svg version="1.0" xmlns="http://www.w3.org/2000/svg"
 width="500.000000pt" height="500.000000pt" viewBox="0 0 500.000000 500.000000"
 preserveAspectRatio="xMidYMid meet">
<metadata>
Created by potrace 1.14, written by Peter Selinger 2001-2017
</metadata>
<g transform="translate(0.000000,500.000000) scale(0.100000,-0.100000)"
fill="#000000" stroke="none">
<path d="M1131 4148 c-201 -31 -320 -242 -242 -433 7 -16 13 -32 14 -35 5 -15
143 -154 1377 -1390 1215 -1215 1420 -1417 1420 -1396 0 4 14 -1 30 -9 17 -9
35 -13 40 -10 5 3 11 2 14 -3 7 -11 101 -5 146 9 130 43 210 154 215 295 2 41
-1 77 -6 80 -5 3 -9 14 -9 25 0 11 -12 38 -26 61 -33 53 -2704 2726 -2759
2761 -56 36 -146 55 -214 45z"/>
<path d="M3790 4151 c0 -3 -13 -7 -30 -8 -16 -1 -47 -11 -68 -22 -61 -31 -790
-764 -826 -830 -39 -73 -44 -165 -14 -253 22 -61 33 -74 413 -455 438 -440
432 -436 565 -437 41 0 84 2 95 5 106 27 209 141 222 247 3 20 6 46 7 57 5 36
-21 124 -48 165 -15 22 -136 150 -270 285 l-244 244 249 248 c137 136 249 253
249 260 0 7 4 13 9 13 10 0 21 27 20 44 0 5 4 12 9 15 9 5 25 75 24 106 -1
146 -105 279 -242 311 -43 9 -120 13 -120 5z"/>
<path d="M1167 2884 c-3 -3 -22 -8 -43 -10 -119 -11 -247 -139 -256 -254 -2
-19 -6 -37 -9 -40 -10 -8 17 -124 38 -164 17 -32 1458 -1486 1474 -1486 3 0
14 -9 24 -20 10 -11 20 -18 23 -15 2 2 19 -3 36 -12 33 -17 173 -26 182 -11 3
4 16 8 29 8 13 0 30 7 39 15 8 8 19 15 24 15 6 0 29 18 52 40 91 87 119 228
71 354 -6 15 -21 40 -32 55 -11 14 -342 349 -736 744 -752 753 -756 757 -857
772 -21 3 -42 7 -46 10 -4 2 -10 2 -13 -1z"/>
<path d="M1075 1606 c-81 -26 -135 -65 -180 -134 -44 -68 -62 -190 -37 -253 6
-15 9 -29 6 -32 -2 -2 2 -10 11 -17 8 -7 15 -19 15 -27 0 -20 234 -253 254
-253 9 0 16 -5 16 -12 0 -6 3 -8 7 -5 3 4 12 2 19 -3 22 -19 125 -27 189 -16
45 8 116 50 153 90 39 42 60 80 80 141 12 38 7 146 -8 185 -1 3 -2 8 -1 13 0
4 -4 7 -11 7 -6 0 -8 3 -5 7 10 10 -39 69 -138 167 -89 87 -145 134 -145 121
0 -4 -12 0 -26 9 -32 22 -146 28 -199 12z"/>
</g>
</svg>
